<svg width="25" height="18" viewBox="0 0 25 18" fill="none" xmlns="http://www.w3.org/2000/svg">
<path fill-rule="evenodd" clip-rule="evenodd" d="M6.77669 0.235911C5.10438 0.733884 4.01468 1.22154 3.59104 1.66157C3.02521 2.24944 2.4439 3.32033 1.61735 5.29806C0.543032 7.86873 0.321149 8.7152 0.103614 11.0731C-0.128281 13.588 0.0197763 14.7778 0.641939 15.3973C1.32468 16.0769 4.19551 17.5996 5.3925 17.917C5.83192 18.0334 5.91424 18.0265 6.23887 17.8463C6.45418 17.7267 6.74059 17.4152 6.95256 17.0699C7.41817 16.3113 7.36498 16.074 6.64856 15.713C5.73109 15.2508 5.56311 15.0946 5.56311 14.7038C5.56311 14.2187 5.78995 14.1634 6.25293 14.5354C7.40846 15.464 9.20699 15.8729 12.1367 15.8729C15.0664 15.8729 16.8649 15.464 18.0204 14.5354C18.4834 14.1634 18.7102 14.2187 18.7102 14.7038C18.7102 15.0946 18.5423 15.2508 17.6248 15.713C16.9084 16.074 16.8552 16.3113 17.3208 17.0699C17.5328 17.4152 17.8192 17.7267 18.0345 17.8463C18.3591 18.0265 18.4414 18.0334 18.8808 17.917C20.0792 17.5992 22.9489 16.0767 23.6329 15.3957C24.1837 14.8474 24.3135 14.191 24.2379 12.3372C24.125 9.57199 23.8478 8.21157 22.9417 5.97534C21.6304 2.73902 20.9547 1.64953 19.9525 1.15591C19.1603 0.765639 17.2594 0.119407 16.6636 0.0376929C16.014 -0.0514041 15.5439 0.195559 15.2646 0.772516C15.0717 1.17098 15.015 1.21739 14.7798 1.16946C12.9753 0.802047 11.2981 0.802047 9.4936 1.16946C9.25836 1.21739 9.20163 1.17098 9.00877 0.772516C8.77182 0.282937 8.32745 -0.0048835 7.82331 0.00462288C7.66483 0.0075557 7.19386 0.11162 6.77669 0.235911ZM8.87902 7.82575C10.2462 8.53276 10.5489 10.5744 9.44799 11.664C8.99815 12.1092 8.6005 12.276 7.97965 12.2798C6.32767 12.29 5.28925 10.3407 6.12682 8.80177C6.70084 7.74707 7.90259 7.3209 8.87902 7.82575ZM17.3848 7.9646C18.8045 8.8489 18.7822 11.0861 17.3449 11.9816C15.9061 12.878 14.1638 11.7711 14.1638 9.96064C14.1638 8.11984 15.9033 7.04188 17.3848 7.9646Z" fill="white"/>
</svg>
