<svg width="19" height="18" viewBox="0 0 19 18" fill="none" xmlns="http://www.w3.org/2000/svg">
<path d="M4.2393 8.57014C4.23929 8.46962 4.25913 8.37009 4.29769 8.27726C4.33626 8.18443 4.39278 8.10013 4.46402 8.02921C4.53526 7.95829 4.61981 7.90214 4.71281 7.864C4.80581 7.82585 4.90544 7.80645 5.00596 7.80692L6.27699 7.81109C6.47966 7.81109 6.67402 7.8916 6.81732 8.0349C6.96063 8.1782 7.04113 8.37257 7.04113 8.57523V13.3815C7.18431 13.3391 7.36795 13.2938 7.56911 13.2466C7.70879 13.2138 7.83327 13.1347 7.92237 13.0222C8.01147 12.9097 8.05997 12.7704 8.06001 12.6269V6.66522C8.05999 6.46253 8.14049 6.26814 8.28379 6.1248C8.42709 5.98146 8.62146 5.90092 8.82415 5.90089H10.0978C10.3004 5.90094 10.4948 5.98149 10.6381 6.12482C10.7814 6.26815 10.8619 6.46253 10.8619 6.66522V12.1985C10.8619 12.1985 11.1806 12.0694 11.4913 11.9383C11.6067 11.8895 11.7051 11.8078 11.7744 11.7034C11.8436 11.599 11.8806 11.4766 11.8807 11.3513V4.75452C11.8807 4.65418 11.9005 4.55483 11.9389 4.46212C11.9772 4.36941 12.0335 4.28518 12.1045 4.21422C12.1754 4.14326 12.2596 4.08698 12.3523 4.04857C12.445 4.01016 12.5444 3.99039 12.6447 3.99038H13.9183C14.121 3.99038 14.3154 4.07089 14.4587 4.21419C14.602 4.35749 14.6825 4.55186 14.6825 4.75452V10.1866C15.7867 9.38644 16.9057 8.42396 17.7937 7.26668C17.9226 7.0987 18.0078 6.90143 18.0419 6.69248C18.0759 6.48354 18.0578 6.26941 17.9889 6.0692C17.3881 4.31813 16.261 2.79539 14.7619 1.70918C13.2628 0.622973 11.4647 0.0263244 9.6136 0.000815924C4.62195 -0.0662387 0.496623 4.00847 0.497114 9.00073C0.492212 10.5804 0.904514 12.1334 1.69233 13.5027C1.80097 13.69 1.96081 13.8424 2.15306 13.942C2.34531 14.0416 2.56199 14.0842 2.77765 14.0649C3.01859 14.0437 3.31856 14.0138 3.67516 13.9719C3.83038 13.9542 3.97367 13.8801 4.07776 13.7636C4.18185 13.6471 4.23945 13.4964 4.23961 13.3402V8.57014" fill="white"/>
<path d="M4.21491 16.2777C5.55734 17.2543 7.14377 17.8405 8.79868 17.9714C10.4536 18.1024 12.1125 17.773 13.5918 17.0196C15.0711 16.2663 16.3132 15.1184 17.1806 13.703C18.048 12.2876 18.507 10.6598 18.5067 8.99972C18.5067 8.79249 18.4971 8.58759 18.4833 8.38379C15.1954 13.2872 9.12467 15.5799 4.21484 16.2779" fill="white"/>
</svg>
