<svg width="19" height="18" viewBox="0 0 19 18" fill="none" xmlns="http://www.w3.org/2000/svg">
<path fill-rule="evenodd" clip-rule="evenodd" d="M4.70976 0.0234264C2.81259 0.291113 1.18559 1.71668 0.600903 3.62374C0.464289 4.06916 0.453125 4.47611 0.453125 9.00477C0.453125 13.5334 0.464289 13.9404 0.600903 14.3858C1.11676 16.0682 2.38483 17.3363 4.06725 17.8521C4.51267 17.9888 4.91962 17.9999 9.44828 17.9999C14.9251 17.9999 14.7049 18.0201 15.8734 17.4117C16.6193 17.0234 17.4669 16.1758 17.8552 15.4299C18.4636 14.2614 18.4434 14.4816 18.4434 9.00477C18.4434 4.47611 18.4323 4.06916 18.2957 3.62374C17.7857 1.96076 16.5534 0.71517 14.8695 0.160763C14.4652 0.0276831 14.0254 0.0141903 9.68922 0.00238419C7.08304 -0.00476375 4.84228 0.00471329 4.70976 0.0234264ZM14.4833 1.73451C15.4546 2.03457 16.2656 2.78438 16.657 3.74421C16.8368 4.18497 16.8372 4.19686 16.8372 9.00477C16.8372 13.8127 16.8368 13.8246 16.657 14.2653C16.2656 15.2252 15.4546 15.975 14.4833 16.275C13.9969 16.4252 13.725 16.4338 9.44828 16.4338C5.17157 16.4338 4.8997 16.4252 4.41324 16.275C3.44201 15.975 2.63092 15.2252 2.23955 14.2653C2.0598 13.8246 2.0594 13.8127 2.0594 9.00477C2.0594 4.19686 2.0598 4.18497 2.23955 3.74421C2.62537 2.79803 3.43711 2.0393 4.38545 1.73853C4.83874 1.59477 5.16731 1.58449 9.41977 1.58023C13.7321 1.57597 13.9959 1.58401 14.4833 1.73451ZM13.6888 3.1788C13.3597 3.37934 13.157 3.77176 13.1565 4.20906C13.1556 5.00915 14.0816 5.57978 14.7875 5.21411C15.5888 4.79921 15.6652 3.64896 14.9222 3.1898C14.5725 2.97368 14.0329 2.96886 13.6888 3.1788ZM8.28373 4.51386C7.46043 4.73102 6.83623 5.09758 6.18729 5.74515C5.24778 6.68257 4.83023 7.68545 4.83023 9.00477C4.83023 9.80036 4.94966 10.3303 5.29155 11.0528C5.84925 12.2311 7.16664 13.2735 8.42821 13.5347C8.97338 13.6476 9.92317 13.6476 10.4683 13.5347C12.1099 13.1949 13.6384 11.6664 13.9782 10.0248C14.0911 9.47966 14.0911 8.52987 13.9782 7.9847C13.6436 6.36798 12.2396 4.93366 10.5759 4.50896C9.981 4.35708 8.86898 4.35941 8.28373 4.51386ZM10.4006 6.12367C12.1311 6.65245 12.9921 8.71644 12.1702 10.3654C11.2517 12.2085 8.72851 12.6113 7.29314 11.1441C6.11316 9.93801 6.12023 8.01249 7.30896 6.84962C8.15185 6.02504 9.24099 5.76924 10.4006 6.12367Z" fill="white"/>
</svg>
