<svg width="23" height="18" viewBox="0 0 23 18" fill="none" xmlns="http://www.w3.org/2000/svg">
<path fill-rule="evenodd" clip-rule="evenodd" d="M0.00292969 6.71649L6.69212 0H15.8137L22.5029 6.71649L11.2529 18L0.00292969 6.71649ZM16.4219 4.27116C13.5789 1.40681 8.92692 1.40682 6.084 4.27117L3.65159 6.71188L6.084 9.15257C8.92692 12.0169 13.5789 12.0169 16.4219 9.15255L18.8544 6.71188L16.4219 4.27116Z" fill="white"/>
<path fill-rule="evenodd" clip-rule="evenodd" d="M11.1562 9.74927C9.44831 9.74927 8.0625 8.36484 8.0625 6.65552C8.0625 4.94619 9.44831 3.56177 11.1562 3.56177C12.8642 3.56177 14.25 4.94619 14.25 6.65552C14.25 8.36484 12.8642 9.74927 11.1562 9.74927ZM9.81114 6.65552C9.81114 7.39871 10.4137 8.00062 11.1562 8.00062C11.8988 8.00062 12.5014 7.39871 12.5014 6.65552C12.5014 5.91232 11.8988 5.31041 11.1562 5.31041C10.4137 5.31041 9.81114 5.91232 9.81114 6.65552Z" fill="white"/>
</svg>
