<svg width="18" height="18" viewBox="0 0 18 18" fill="none" xmlns="http://www.w3.org/2000/svg">
<path fill-rule="evenodd" clip-rule="evenodd" d="M18 9C18 13.9703 13.9703 18 9 18C4.02972 18 0 13.9703 0 9C0 4.02968 4.02972 0 9 0C13.9713 0 18 4.02968 18 9ZM4.44022 9.30234L4.47906 9.2414L6.82032 5.5789C6.85452 5.525 6.93498 5.53086 6.96086 5.58906C7.352 6.46562 7.6895 7.55586 7.53138 8.23438C7.46388 8.51368 7.27896 8.8918 7.0709 9.2414L7.03396 9.30782L6.99806 9.3668L6.98306 9.39024C6.96826 9.4125 6.9433 9.4254 6.91648 9.4254H4.50864C4.44392 9.4254 4.40602 9.35508 4.44022 9.30234ZM14.876 10.5629V9.98282C14.876 9.94766 14.8536 9.91876 14.8239 9.90742C14.8084 9.90156 14.7908 9.9004 14.7734 9.90546L12.0354 10.6969C12.0206 10.7004 12.0077 10.709 11.9975 10.7199C11.7035 11.0449 11.4537 11.2625 11.3885 11.3191L11.3845 11.3227C11.2143 11.4672 11.0035 11.5457 10.7816 11.5457H9.79034V10.5352H10.5782C10.5985 10.5352 10.6179 10.5277 10.6327 10.5148L10.7344 10.4211C10.7779 10.3816 10.8297 10.3336 10.8916 10.2715L10.909 10.2539C10.9411 10.2219 10.9754 10.1879 11.009 10.1504C11.0497 10.1105 11.0895 10.066 11.1265 10.0227C11.1884 9.95624 11.2476 9.88672 11.3096 9.81368C11.3539 9.76562 11.3946 9.71094 11.4344 9.65664C11.4788 9.60468 11.5222 9.54648 11.5629 9.49102L11.6091 9.4254L11.6582 9.35586C11.6878 9.31172 11.7173 9.26446 11.7423 9.22032C11.82 9.1 11.8856 8.97148 11.9411 8.84296C11.9698 8.78086 11.992 8.71524 12.0142 8.65234C12.029 8.6082 12.0423 8.56562 12.0535 8.52266L12.0687 8.45898C12.0856 8.38086 12.0958 8.30312 12.0998 8.2254C12.1038 8.14922 12.1019 8.07344 12.0946 7.99766C12.0927 7.97266 12.0907 7.94804 12.0878 7.92382C12.085 7.90118 12.0814 7.8793 12.0761 7.8582V7.85078C12.0724 7.81914 12.065 7.78398 12.0548 7.75196C12.0309 7.64414 11.9974 7.53632 11.956 7.42968C11.9399 7.3879 11.9225 7.34648 11.9041 7.30508C11.8819 7.2504 11.856 7.19492 11.8311 7.14414C11.7719 7.03438 11.7099 6.92422 11.6397 6.81796L11.5945 6.7504L11.5592 6.69766C11.5149 6.62968 11.4652 6.56368 11.4169 6.5L11.3835 6.45546C11.354 6.4168 11.3217 6.37774 11.2891 6.33868L11.2402 6.27968C11.1921 6.22148 11.145 6.16602 11.0969 6.11132C10.9249 5.91718 10.7446 5.7414 10.5837 5.5918C10.5541 5.5621 10.5217 5.53242 10.4885 5.5039C10.3636 5.39024 10.2499 5.2914 10.1547 5.21446C10.1258 5.19218 10.1 5.17032 10.076 5.15L10.0298 5.11172L9.9198 5.02852L9.90654 5.0207L9.89574 5.0164L9.79034 4.9871V4.11406C9.79034 3.97188 9.733 3.84414 9.64146 3.75078C9.54992 3.65742 9.42232 3.6 9.28178 3.6C9.00068 3.6 8.7732 3.83008 8.7732 4.11406V4.70234L8.7205 4.6875L8.57718 4.64688L8.4468 4.61054L8.44032 4.60976L7.45092 4.3414C7.40748 4.32968 7.37048 4.37656 7.39268 4.4164L7.5508 4.7086C7.56094 4.73398 7.57416 4.75938 7.58742 4.78554L7.60536 4.82226C7.63124 4.87422 7.65714 4.9289 7.6821 4.9832L7.72402 5.07266L7.75238 5.13046L7.78496 5.20312C7.82648 5.29532 7.87016 5.39218 7.91326 5.49648C7.95024 5.58438 7.98724 5.67226 8.0196 5.76368C8.06868 5.89102 8.11636 6.02304 8.16152 6.1586C8.19804 6.26796 8.23292 6.3793 8.26556 6.49218C8.29146 6.57266 8.30994 6.6496 8.33214 6.73008L8.3423 6.77422C8.3719 6.8918 8.39778 7.0082 8.41628 7.12578C8.43108 7.20624 8.44494 7.28282 8.45234 7.36054C8.46344 7.44844 8.47454 7.53632 8.47824 7.62422C8.48564 7.70468 8.48934 7.78868 8.48934 7.86914C8.48934 7.96132 8.48562 8.05196 8.4776 8.14062C8.46774 8.2496 8.45136 8.35586 8.42738 8.45898L8.41962 8.4879C8.40732 8.53398 8.39456 8.58164 8.3793 8.62734C8.3683 8.6664 8.35468 8.70546 8.34018 8.74532L8.30994 8.8289C8.30032 8.85468 8.29068 8.88124 8.28004 8.90704L8.26186 8.94922C8.17032 9.16914 8.05658 9.38828 7.93916 9.59376C7.76716 9.89804 7.59426 10.1652 7.47312 10.3371L7.4269 10.4055C7.38898 10.4594 7.42782 10.5352 7.49346 10.5352H8.7732V11.5457H7.47868C7.131 11.5457 6.80922 11.3488 6.65386 11.0336C6.57342 10.8754 6.54198 10.7016 6.56048 10.5312C6.5651 10.4805 6.52718 10.4324 6.4754 10.4324H3.86046C3.83646 10.4324 3.8149 10.443 3.80014 10.4598C3.7876 10.4738 3.78 10.4926 3.78 10.5129V10.5664C3.78 12.2344 5.12724 13.5863 6.7898 13.5863H11.4806C12.36 13.5863 12.8593 12.7852 13.35 11.9973C13.4868 11.7777 13.6229 11.5594 13.7664 11.3598C14.0244 11.0012 14.6448 10.7164 14.8261 10.6387C14.8557 10.6258 14.876 10.5961 14.876 10.5629Z" fill="white"/>
</svg>
