<svg width="23" height="18" viewBox="0 0 23 18" fill="none" xmlns="http://www.w3.org/2000/svg">
<path fill-rule="evenodd" clip-rule="evenodd" d="M11.2396 3.77264C5.87933 5.84317 1.37765 7.60892 1.23597 7.69656C0.944378 7.87681 0.724609 8.16594 0.724609 8.36927C0.724609 8.44959 0.800399 8.58211 0.907768 8.68948C1.05549 8.8372 1.24731 8.9221 1.89986 9.12868C2.34476 9.26947 3.53353 9.64675 4.5416 9.96701L6.37442 10.5494L12.0312 6.97225C15.1424 5.00484 17.7722 3.35909 17.8752 3.3151C17.9783 3.27106 18.1418 3.24272 18.2385 3.25211C18.6749 3.29448 18.6734 3.29604 13.805 7.68191C11.0754 10.1411 9.15277 11.9129 9.1388 11.9823C9.11315 12.1096 8.82742 16.5271 8.82843 16.7812C8.8291 16.9695 8.92501 16.9776 9.27518 16.8188C9.43905 16.7445 9.82594 16.4113 10.393 15.8565C10.87 15.3897 11.4655 14.8092 11.7163 14.5664L12.1723 14.1249L14.6501 15.9579C16.0129 16.966 17.2288 17.8366 17.3521 17.8926C17.6574 18.0313 18.1266 18.0284 18.3563 17.8864C18.6988 17.6748 18.7934 17.3921 19.2727 15.1463C21.907 2.80464 22.1987 1.3814 22.1779 0.970088C22.1552 0.520826 22.0646 0.345715 21.7407 0.125276C21.34 -0.147422 21.8196 -0.314036 11.2396 3.77264Z" fill="white"/>
</svg>
