<svg width="17" height="18" viewBox="0 0 17 18" fill="none" xmlns="http://www.w3.org/2000/svg">
<path fill-rule="evenodd" clip-rule="evenodd" d="M8.84433 6.44244C8.83359 13.6973 8.8621 12.9988 8.55203 13.5998C8.11094 14.4546 7.2508 15.0039 6.25008 15.07C5.00211 15.1525 3.81985 14.3806 3.42459 13.2253C3.29012 12.8322 3.26751 12.214 3.37282 11.8097C3.69974 10.5546 4.87909 9.70877 6.20247 9.78029C6.39884 9.79092 6.64349 9.82135 6.74614 9.8479L6.9328 9.89624V8.40548V6.91471L6.76392 6.88751C6.47034 6.84026 5.48516 6.86164 5.10348 6.92356C2.16656 7.39987 0.0678703 9.83731 0.188543 12.6318C0.242657 13.8846 0.671802 14.9556 1.52362 15.9636C2.31155 16.896 3.57918 17.627 4.83205 17.8715C6.43262 18.1838 8.08125 17.8748 9.38838 17.0176C10.8116 16.0843 11.6942 14.691 11.9086 13.039C11.9325 12.8543 11.946 11.5165 11.946 9.32012V5.8897L12.1055 6.00626C12.1932 6.07037 12.4067 6.20681 12.58 6.30941C13.6839 6.96318 14.9587 7.34847 16.2201 7.40961L16.6748 7.43164V5.96259V4.49354L16.4881 4.49334C15.9952 4.49283 15.3103 4.33937 14.7535 4.10478C13.1407 3.42517 12.0179 1.87238 11.9393 0.212762L11.9293 0H10.3916H8.85382L8.84433 6.44244Z" fill="white"/>
</svg>
