<svg width="23" height="18" viewBox="0 0 23 18" fill="none" xmlns="http://www.w3.org/2000/svg">
<path fill-rule="evenodd" clip-rule="evenodd" d="M14.3684 0.174337C13.1409 0.628014 12.278 1.4278 11.6891 2.65745C11.3505 3.36486 11.3341 3.44772 11.3308 4.47801L11.3273 5.55753L10.732 5.49224C7.73087 5.16309 5.2288 3.98375 2.98334 1.8399C2.41833 1.30049 1.91127 0.886705 1.85659 0.920542C1.65426 1.04557 1.35479 2.28514 1.35479 2.99741C1.35479 4.36221 1.83536 5.51883 2.76454 6.39016L3.23161 6.82816L2.91338 6.82489C2.63584 6.82211 2.00613 6.63556 1.42028 6.38272C1.2507 6.30959 1.24276 6.34541 1.30775 6.88859C1.50413 8.52905 2.71135 10.0835 4.20704 10.6218C4.95364 10.8904 4.83456 10.9786 3.71149 10.9889C3.16563 10.9938 2.94276 11.0318 2.94335 11.1198C2.94534 11.3764 3.5814 12.3411 4.04897 12.7965C4.64146 13.3736 5.78528 13.9555 6.48991 14.0384C6.77638 14.072 7.01086 14.1333 7.01086 14.1746C7.01086 14.2159 6.79871 14.3845 6.53952 14.5492C4.99938 15.528 3.64103 15.9515 1.75171 16.0419L0.412109 16.1061L1.46751 16.6291C3.66207 17.7166 4.86036 17.989 7.4574 17.9904C9.48961 17.9916 10.2346 17.8857 11.7433 17.3815C15.4479 16.1434 18.4693 13.039 19.7444 9.16005C20.1496 7.92743 20.3043 7.1318 20.4107 5.73366L20.5089 4.44338L21.2584 3.73141C22.0264 3.00198 22.6458 2.28653 22.5728 2.2134C22.5502 2.19088 22.1988 2.27661 21.7918 2.40402C21.3848 2.53133 20.8732 2.66757 20.6549 2.70667L20.258 2.77782L20.914 2.0982C21.5174 1.47295 22.2149 0.378253 22.0099 0.378253C21.962 0.378253 21.6375 0.507252 21.2888 0.664927C20.4437 1.04716 19.3232 1.38632 19.1814 1.30297C19.1186 1.26596 18.8855 1.08864 18.6634 0.908932C18.4413 0.729128 17.9948 0.459324 17.6711 0.309289C17.1614 0.0730238 16.9365 0.0325382 15.9911 0.00723466C15.0982 -0.0166796 14.8031 0.0136846 14.3684 0.174337Z" fill="white"/>
</svg>
