<svg width="20" height="20" viewBox="0 0 20 20" fill="none" xmlns="http://www.w3.org/2000/svg">
<path d="M16.9187 10.8711C17.1033 11.0594 17.2496 11.2828 17.3493 11.5287C17.449 11.7745 17.5002 12.038 17.5 12.3041C17.5 12.8412 17.2906 13.3563 16.9179 13.7361C16.5451 14.1159 16.0396 14.3293 15.5125 14.3293H4.4875C3.96038 14.3293 3.45485 14.1159 3.08213 13.7361C2.7094 13.3563 2.5 12.8412 2.5 12.3041C2.49977 12.038 2.55099 11.7745 2.65072 11.5287C2.75045 11.2828 2.89675 11.0594 3.08125 10.8711L4.375 9.55285V5.73171C4.375 4.21156 4.96763 2.75368 6.02253 1.67878C7.07742 0.603875 8.50816 0 10 0C11.4918 0 12.9226 0.603875 13.9775 1.67878C15.0324 2.75368 15.625 4.21156 15.625 5.73171V9.55285L16.9187 10.8711ZM12.8125 16.7175H7.1875C7.1875 17.4776 7.48382 18.2065 8.01126 18.7439C8.53871 19.2814 9.25408 19.5833 10 19.5833C10.7459 19.5833 11.4613 19.2814 11.9887 18.7439C12.5162 18.2065 12.8125 17.4776 12.8125 16.7175Z" fill="#D4D8DC"/>
</svg>
