<svg width="33" height="34" viewBox="0 0 33 34" fill="none" xmlns="http://www.w3.org/2000/svg">
<path d="M30.4679 18.9244C30.4679 13.6127 27.5259 8.98847 23.1836 6.5918" stroke="white" stroke-width="2" stroke-miterlimit="10"/>
<path d="M2.31543 18.9238C2.31543 13.7986 5.05486 9.31309 9.14864 6.85156" stroke="white" stroke-width="2" stroke-miterlimit="10"/>
<path d="M23.4803 31.0876C21.3983 32.3028 18.977 32.9995 16.3927 32.9995C13.5259 32.9995 10.8595 32.1428 8.63574 30.6714" stroke="white" stroke-width="2" stroke-miterlimit="10"/>
<path d="M16.392 1.10127C18.4579 1.10127 20.1389 2.78228 20.1389 4.8481C20.1389 6.91393 18.4579 8.59494 16.392 8.59494C14.3262 8.59494 12.6452 6.91393 12.6452 4.8481C12.6452 2.78228 14.3262 1.10127 16.392 1.10127ZM16.392 1C14.2665 1 12.5439 2.72253 12.5439 4.8481C12.5439 6.97367 14.2665 8.69621 16.392 8.69621C18.5176 8.69621 20.2402 6.97367 20.2402 4.8481C20.2402 2.72253 18.5176 1 16.392 1Z" stroke="white" stroke-width="2"/>
<path d="M4.8481 21.2648C6.91393 21.2648 8.59494 22.9459 8.59494 25.0117C8.59494 27.0775 6.91393 28.7585 4.8481 28.7585C2.78228 28.7585 1.10127 27.0775 1.10127 25.0117C1.10127 22.9459 2.78228 21.2648 4.8481 21.2648ZM4.8481 21.1636C2.72253 21.1636 1 22.8861 1 25.0117C1 27.1372 2.72253 28.8598 4.8481 28.8598C6.97367 28.8598 8.69621 27.1372 8.69621 25.0117C8.69621 22.8861 6.97367 21.1636 4.8481 21.1636Z" stroke="white" stroke-width="2"/>
<path d="M27.937 21.2648C30.0028 21.2648 31.6838 22.9459 31.6838 25.0117C31.6838 27.0775 30.0028 28.7585 27.937 28.7585C25.8711 28.7585 24.1901 27.0775 24.1901 25.0117C24.1901 22.9459 25.8711 21.2648 27.937 21.2648ZM27.937 21.1636C25.8114 21.1636 24.0889 22.8861 24.0889 25.0117C24.0889 27.1372 25.8114 28.8598 27.937 28.8598C30.0625 28.8598 31.7851 27.1372 31.7851 25.0117C31.7851 22.8861 30.0625 21.1636 27.937 21.1636Z" stroke="white" stroke-width="2"/>
</svg>
