<svg width="29" height="33" viewBox="0 0 29 33" fill="none" xmlns="http://www.w3.org/2000/svg">
<path d="M14.4824 25.5493C16.1764 25.5493 17.5497 24.176 17.5497 22.4819C17.5497 20.7879 16.1764 19.4146 14.4824 19.4146C12.7883 19.4146 11.415 20.7879 11.415 22.4819C11.415 24.176 12.7883 25.5493 14.4824 25.5493Z" stroke="#006EF5" stroke-width="2" stroke-miterlimit="10" stroke-linecap="round"/>
<path d="M8.83105 32.0005C8.83105 28.8796 11.3609 26.3498 14.4818 26.3498C17.6027 26.3498 20.1325 28.8796 20.1325 32.0005" stroke="#006EF5" stroke-width="2" stroke-miterlimit="10" stroke-linecap="round"/>
<path d="M22.3144 22.3241C24.0084 22.3241 25.3817 20.9508 25.3817 19.2568C25.3817 17.5627 24.0084 16.1895 22.3144 16.1895C20.6204 16.1895 19.2471 17.5627 19.2471 19.2568C19.2471 20.9508 20.6204 22.3241 22.3144 22.3241Z" stroke="#006EF5" stroke-width="2" stroke-miterlimit="10" stroke-linecap="round"/>
<path d="M19.9697 23.632C20.6836 23.3062 21.4771 23.1246 22.3128 23.1246C25.4337 23.1246 27.9635 25.6545 27.9635 28.7754" stroke="#006EF5" stroke-width="2" stroke-miterlimit="10" stroke-linecap="round"/>
<path d="M6.6513 22.3241C8.34534 22.3241 9.71862 20.9508 9.71862 19.2568C9.71862 17.5627 8.34534 16.1895 6.6513 16.1895C4.95727 16.1895 3.58398 17.5627 3.58398 19.2568C3.58398 20.9508 4.95727 22.3241 6.6513 22.3241Z" stroke="#006EF5" stroke-width="2" stroke-miterlimit="10" stroke-linecap="round"/>
<path d="M8.99376 23.632C8.27988 23.3062 7.48638 23.1246 6.65074 23.1246C3.52982 23.1246 1 25.6545 1 28.7754" stroke="#006EF5" stroke-width="2" stroke-miterlimit="10" stroke-linecap="round"/>
<path d="M14.4824 19.4145V11.173" stroke="#006EF5" stroke-width="2" stroke-miterlimit="10" stroke-linecap="round"/>
<path d="M6.64941 16.1895C6.64941 14.616 7.92525 13.3402 9.49872 13.3402H19.464C21.0375 13.3402 22.3133 14.616 22.3133 16.1895" stroke="#006EF5" stroke-width="2" stroke-miterlimit="10" stroke-linecap="round"/>
<path d="M14.1353 0L15.3017 3.43358H19.0785L16.023 5.5547L17.1901 8.98828L14.1353 6.86642L11.0798 8.98828L12.247 5.5547L9.19141 3.43358H12.9682L14.1353 0Z" fill="#006EF5"/>
<path d="M6.79975 6.03094L7.53255 8.2852H9.90223L7.98459 9.67782L8.71739 11.9321L6.79975 10.5387L4.88285 11.9321L5.61491 9.67782L3.69727 8.2852H6.06769L6.79975 6.03094Z" fill="#006EF5"/>
<path d="M21.4726 6.03094L22.2047 8.2852H24.5751L22.6574 9.67782L23.3895 11.9321L21.4726 10.5387L19.555 11.9321L20.2878 9.67782L18.3701 8.2852H20.7405L21.4726 6.03094Z" fill="#006EF5"/>
</svg>
