<svg width="26" height="22" viewBox="0 0 26 22" fill="none" xmlns="http://www.w3.org/2000/svg">
<path d="M21.3051 20.9999H3.80528C2.25754 20.9999 1 19.7424 1 18.1924V10.5392C1 8.98918 2.25754 7.73389 3.80528 7.73389H21.3028C22.8528 7.73389 24.1081 8.99143 24.1081 10.5392V18.1924C24.1104 19.7424 22.8551 20.9999 21.3051 20.9999Z" stroke="#3AC754" stroke-width="2" stroke-miterlimit="10"/>
<path d="M12.5697 7.73397C12.4369 7.20306 13.2873 5.72281 13.4763 5.21439C14.0769 3.61491 15.0217 1.65324 16.7967 1.12458C18.3804 0.652157 19.8944 1.55426 19.7235 3.30671C19.4018 6.60241 15.2827 7.73397 12.5697 7.73397Z" stroke="#3AC754" stroke-width="2" stroke-miterlimit="10"/>
<path d="M12.5404 7.73397C12.6731 7.20306 11.8227 5.72281 11.6338 5.21439C11.0331 3.61491 10.0883 1.65324 8.31108 1.12458C6.72735 0.652157 5.21335 1.55426 5.38432 3.30671C5.70827 6.60241 9.82958 7.73397 12.5404 7.73397Z" stroke="#3AC754" stroke-width="2" stroke-miterlimit="10"/>
<path d="M12.541 7.73389V20.9999" stroke="#3AC754" stroke-width="2" stroke-miterlimit="10"/>
</svg>
