<svg width="52" height="30" viewBox="0 0 52 30" fill="none" xmlns="http://www.w3.org/2000/svg">
<path d="M31.6236 22.7845L31.8293 23.176C33.5302 26.4129 36.8855 28.44 40.5421 28.44C47.8461 28.44 52.6057 20.7649 49.3592 14.2221L45.3581 6.15842C45.3324 6.10606 45.3058 6.05411 45.2788 6.00216C43.1959 1.98319 38.4908 0.0807168 34.1706 1.43132L28.5026 3.20289C26.677 3.77347 24.7205 3.77347 22.8949 3.20289L17.227 1.43132C12.9067 0.0807168 8.20166 1.98361 6.11841 6.00216C6.0914 6.0537 6.06522 6.10606 6.03903 6.15842L2.03835 14.2221C-1.20808 20.7649 3.55144 28.44 10.8555 28.44C14.5121 28.44 17.8674 26.4129 19.5683 23.176L19.774 22.7845C22.2824 18.0117 29.1152 18.0117 31.6236 22.7845Z" stroke="white" stroke-width="2" stroke-miterlimit="10"/>
<path d="M13.5254 9.00452V16.2067" stroke="white" stroke-width="2" stroke-miterlimit="10" stroke-linecap="round"/>
<path d="M17.127 12.6055H9.9248" stroke="white" stroke-width="2" stroke-miterlimit="10" stroke-linecap="round"/>
<path d="M37.4314 10.4735C38.0779 10.4735 38.6021 9.9494 38.6021 9.30286C38.6021 8.65632 38.0779 8.1322 37.4314 8.1322C36.7849 8.1322 36.2607 8.65632 36.2607 9.30286C36.2607 9.9494 36.7849 10.4735 37.4314 10.4735Z" stroke="white" stroke-width="2" stroke-miterlimit="10" stroke-linecap="round"/>
<path d="M37.4314 16.2067C38.0779 16.2067 38.6021 15.6826 38.6021 15.036C38.6021 14.3895 38.0779 13.8654 37.4314 13.8654C36.7849 13.8654 36.2607 14.3895 36.2607 15.036C36.2607 15.6826 36.7849 16.2067 37.4314 16.2067Z" stroke="white" stroke-width="2" stroke-miterlimit="10" stroke-linecap="round"/>
<path d="M40.2986 13.3401C40.9451 13.3401 41.4692 12.816 41.4692 12.1694C41.4692 11.5229 40.9451 10.9988 40.2986 10.9988C39.6521 10.9988 39.1279 11.5229 39.1279 12.1694C39.1279 12.816 39.6521 13.3401 40.2986 13.3401Z" stroke="white" stroke-width="2" stroke-miterlimit="10" stroke-linecap="round"/>
<path d="M34.5652 13.3401C35.2117 13.3401 35.7359 12.816 35.7359 12.1694C35.7359 11.5229 35.2117 10.9988 34.5652 10.9988C33.9187 10.9988 33.3945 11.5229 33.3945 12.1694C33.3945 12.816 33.9187 13.3401 34.5652 13.3401Z" stroke="white" stroke-width="2" stroke-miterlimit="10" stroke-linecap="round"/>
</svg>
