<svg width="20" height="20" viewBox="0 0 20 20" fill="none" xmlns="http://www.w3.org/2000/svg">
<path d="M17.3653 7.36349L19.2848 9.28303C19.3795 9.37695 19.4547 9.48868 19.506 9.61179C19.5573 9.73491 19.5837 9.86696 19.5837 10.0003C19.5837 10.1337 19.5573 10.2657 19.506 10.3889C19.4547 10.512 19.3795 10.6237 19.2848 10.7176L17.3653 12.6372C17.1786 12.8253 17.0734 13.0793 17.0723 13.3444V16.062C17.0723 16.33 16.9659 16.5869 16.7764 16.7764C16.5869 16.9659 16.33 17.0723 16.062 17.0723H13.3444C13.0793 17.0734 12.8253 17.1786 12.6372 17.3653L10.7176 19.2848C10.6237 19.3795 10.512 19.4547 10.3889 19.506C10.2657 19.5573 10.1337 19.5837 10.0003 19.5837C9.86696 19.5837 9.73491 19.5573 9.61179 19.506C9.48868 19.4547 9.37695 19.3795 9.28303 19.2848L7.36349 17.3653C7.17531 17.1786 6.92133 17.0734 6.65629 17.0723H3.93863C3.67069 17.0723 3.41372 16.9659 3.22426 16.7764C3.03479 16.5869 2.92835 16.33 2.92835 16.062V13.3444C2.92723 13.0793 2.82201 12.8253 2.63537 12.6372L0.715832 10.7176C0.62114 10.6237 0.545981 10.512 0.49469 10.3889C0.443399 10.2657 0.416992 10.1337 0.416992 10.0003C0.416992 9.86696 0.443399 9.73491 0.49469 9.61179C0.545981 9.48868 0.62114 9.37695 0.715832 9.28303L2.63537 7.36349C2.82201 7.17531 2.92723 6.92133 2.92835 6.65629V3.93863C2.92835 3.67069 3.03479 3.41372 3.22426 3.22426C3.41372 3.03479 3.67069 2.92835 3.93863 2.92835H6.65629C6.92133 2.92723 7.17531 2.82201 7.36349 2.63537L9.28303 0.715832C9.37695 0.62114 9.48868 0.545981 9.61179 0.49469C9.73491 0.443399 9.86696 0.416992 10.0003 0.416992C10.1337 0.416992 10.2657 0.443399 10.3889 0.49469C10.512 0.545981 10.6237 0.62114 10.7176 0.715832L12.6372 2.63537C12.8253 2.82201 13.0793 2.92723 13.3444 2.92835H16.062C16.33 2.92835 16.5869 3.03479 16.7764 3.22426C16.9659 3.41372 17.0723 3.67069 17.0723 3.93863V6.65629C17.0734 6.92133 17.1786 7.17531 17.3653 7.36349ZM10.0003 6.96948C9.40088 6.96948 8.8149 7.14724 8.31648 7.48027C7.81806 7.8133 7.42959 8.28666 7.20019 8.84047C6.97079 9.39429 6.91077 10.0037 7.02772 10.5916C7.14466 11.1795 7.43332 11.7196 7.85719 12.1435C8.28106 12.5673 8.82111 12.856 9.40904 12.9729C9.99696 13.0899 10.6064 13.0299 11.1602 12.8005C11.714 12.5711 12.1873 12.1826 12.5204 11.6842C12.8534 11.1858 13.0312 10.5998 13.0312 10.0003C13.0312 9.1965 12.7119 8.42559 12.1435 7.85719C11.5751 7.2888 10.8042 6.96948 10.0003 6.96948Z" fill="#006EF5"/>
</svg>
