<svg width="22" height="22" viewBox="0 0 22 22" fill="none" xmlns="http://www.w3.org/2000/svg">
<path d="M10.9532 9.54688C10.4068 9.54688 9.96338 9.9903 9.96338 10.5367V16.9426C9.96338 17.489 10.4068 17.9324 10.9532 17.9324C11.4995 17.9324 11.9429 17.489 11.9429 16.9426V10.5367C11.9429 9.9903 11.4995 9.54688 10.9532 9.54688Z" fill="#006EF5"/>
<path d="M10.955 5.38513H10.951C10.2067 5.38513 9.60889 5.98692 9.60889 6.73123C9.60889 7.47554 10.2146 8.07733 10.955 8.07733C11.6993 8.07733 12.3011 7.47554 12.3011 6.73123C12.3011 5.98692 11.6993 5.38513 10.955 5.38513Z" fill="#006EF5"/>
<path d="M14.7874 0.677481C10.4521 -0.945756 5.43592 0.424097 2.48638 3.97146C-3.90758 11.6561 2.93376 23.4622 12.7563 21.8508C18.0972 20.9759 21.8187 16.312 21.9573 10.9949C21.8385 6.4182 19.1265 2.30864 14.7874 0.677481ZM10.951 20.576C5.74078 20.5918 1.35804 16.2091 1.36991 10.9949C1.38179 5.77286 5.72098 1.41388 10.951 1.41388C16.276 1.41388 20.3974 5.77682 20.532 10.9949C20.3935 16.2249 16.276 20.5641 10.951 20.576Z" fill="#006EF5"/>
</svg>
