<svg width="16" height="16" viewBox="0 0 16 16" fill="none" xmlns="http://www.w3.org/2000/svg">
<g clip-path="url(#clip0_1234_13792)">
<path d="M8.00033 7.66699V12.0003M8.00033 4.38921V5.16699M0.666992 8.00033C0.666992 6.0554 1.43961 4.19014 2.81488 2.81488C4.19014 1.43961 6.0554 0.666992 8.00033 0.666992C9.94525 0.666992 11.8105 1.43961 13.1858 2.81488C14.561 4.19014 15.3337 6.0554 15.3337 8.00033C15.3337 9.94525 14.561 11.8105 13.1858 13.1858C11.8105 14.561 9.94525 15.3337 8.00033 15.3337C6.0554 15.3337 4.19014 14.561 2.81488 13.1858C1.43961 11.8105 0.666992 9.94525 0.666992 8.00033Z" stroke="#858585" stroke-linecap="round" stroke-linejoin="round"/>
</g>
<defs>
<clipPath id="clip0_1234_13792">
<rect width="16" height="16" fill="white"/>
</clipPath>
</defs>
</svg>
