<svg width="35" height="25" viewBox="0 0 35 25" fill="none" xmlns="http://www.w3.org/2000/svg">
<path d="M27.1585 14.458C26.1535 12.8614 24.7775 11.5208 23.1514 10.5591" stroke="white" stroke-width="2" stroke-miterlimit="10"/>
<path d="M11.1146 10.5591C9.48848 11.5208 8.11241 12.8614 7.10742 14.458" stroke="white" stroke-width="2" stroke-miterlimit="10"/>
<path d="M17.1288 12.3787C20.2709 12.3787 22.8181 9.83148 22.8181 6.68934C22.8181 3.54721 20.2709 1 17.1288 1C13.9867 1 11.4395 3.54721 11.4395 6.68934C11.4395 9.83148 13.9867 12.3787 17.1288 12.3787Z" stroke="white" stroke-width="2" stroke-miterlimit="10"/>
<path d="M30.5713 20.292C32.1797 21.2428 33.2585 22.9959 33.2585 25" stroke="white" stroke-width="2" stroke-miterlimit="10"/>
<path d="M22.3281 25C22.3281 22.9959 23.4069 21.2428 25.0153 20.292" stroke="white" stroke-width="2" stroke-miterlimit="10"/>
<path d="M27.7924 20.7833C29.3276 20.7833 30.5721 19.5388 30.5721 18.0036C30.5721 16.4684 29.3276 15.2239 27.7924 15.2239C26.2572 15.2239 25.0127 16.4684 25.0127 18.0036C25.0127 19.5388 26.2572 20.7833 27.7924 20.7833Z" stroke="white" stroke-width="2" stroke-miterlimit="10"/>
<path d="M9.25 20.292C10.8584 21.2428 11.9372 22.9959 11.9372 25" stroke="white" stroke-width="2" stroke-miterlimit="10"/>
<path d="M1 25C1 22.9959 2.07881 21.2428 3.68718 20.292" stroke="white" stroke-width="2" stroke-miterlimit="10"/>
<path d="M6.46525 20.7833C8.00044 20.7833 9.24496 19.5388 9.24496 18.0036C9.24496 16.4684 8.00044 15.2239 6.46525 15.2239C4.93006 15.2239 3.68555 16.4684 3.68555 18.0036C3.68555 19.5388 4.93006 20.7833 6.46525 20.7833Z" stroke="white" stroke-width="2" stroke-miterlimit="10"/>
</svg>
