<svg width="39" height="39" viewBox="0 0 39 39" fill="none" xmlns="http://www.w3.org/2000/svg">
<circle cx="19.5" cy="19.5" r="19.5" fill="#3E4D5F"/>
<path d="M24.9219 16C24.9219 16.9889 24.6332 17.9556 24.0924 18.7779C23.5516 19.6001 22.7829 20.241 21.8835 20.6194C20.9842 20.9978 19.9945 21.0969 19.0398 20.9039C18.085 20.711 17.208 20.2348 16.5197 19.5355C15.8314 18.8363 15.3626 17.9454 15.1727 16.9755C14.9828 16.0055 15.0803 15.0002 15.4528 14.0866C15.8253 13.173 16.4562 12.3921 17.2656 11.8427C18.075 11.2932 19.0265 11 20 11C21.3054 11 22.5573 11.5268 23.4803 12.4645C24.4033 13.4021 24.9219 14.6739 24.9219 16ZM17.0469 21C15.7415 21 14.4896 21.5268 13.5666 22.4645C12.6436 23.4021 12.125 24.6739 12.125 26V27C12.125 27 14.0938 29 20 29C25.9062 29 27.875 27 27.875 27V26C27.875 24.6739 27.3564 23.4021 26.4334 22.4645C25.5104 21.5268 24.2585 21 22.9531 21H17.0469Z" fill="#D4D8DC"/>
</svg>
